<?xml version="1.0" standalone="no"?>
<!DOCTYPE svg PUBLIC "-//W3C//DTD SVG 20010904//EN"
 "http://www.w3.org/TR/2001/REC-SVG-20010904/DTD/svg10.dtd">
<svg version="1.0" xmlns="http://www.w3.org/2000/svg"
 width="700.000000pt" height="700.000000pt" viewBox="0 0 700.000000 700.000000"
 preserveAspectRatio="xMidYMid meet">
<metadata>
Created by potrace 1.14, written by Peter Selinger 2001-2017
</metadata>
<g transform="translate(0.000000,700.000000) scale(0.100000,-0.100000)"
fill="#000000" stroke="none">
<path d="M3200 6215 l-205 -205 295 -295 c162 -162 290 -295 284 -295 -6 0
-57 7 -115 17 -146 23 -466 23 -619 0 -474 -72 -866 -259 -1225 -584 l-105
-94 5 123 c3 68 7 205 10 304 l5 182 -143 6 c-78 3 -208 7 -290 9 l-147 2 0
-30 c0 -16 -12 -489 -26 -1050 -31 -1202 -31 -1199 -15 -1340 124 -1077 962
-1903 2035 -2005 68 -6 522 -10 1193 -10 l1083 0 0 290 0 290 -276 0 -276 0
90 95 c362 378 572 821 631 1330 21 179 7 557 -25 670 -3 11 148 -133 335
-320 l341 -340 205 205 205 205 -1523 1523 -1522 1522 -205 -205z m286 -1369
c675 -141 1195 -676 1316 -1355 29 -164 28 -411 -1 -575 -131 -731 -718 -1287
-1454 -1377 -137 -16 -383 -7 -520 20 -654 131 -1156 621 -1314 1281 -34 144
-44 449 -19 619 108 736 709 1316 1463 1411 125 16 394 4 529 -24z"/>
</g>
</svg>
